<svg width="236" height="41" viewBox="0 0 236 41" fill="none" xmlns="http://www.w3.org/2000/svg">
<path d="M23.4895 4.198V11.185H8.90351V18.733H19.8175V25.516H8.90351V40H0.182508V4.198H23.4895ZM36.7941 16.285C37.8141 14.721 39.0891 13.497 40.6191 12.613C42.1491 11.695 43.8491 11.236 45.7191 11.236V20.467H43.3221C41.1461 20.467 39.5141 20.943 38.4261 21.895C37.3381 22.813 36.7941 24.445 36.7941 26.791V40H28.0731V11.542H36.7941V16.285ZM76.7136 25.312C76.7136 26.128 76.6626 26.978 76.5606 27.862H56.8236C56.9596 29.63 57.5206 30.99 58.5066 31.942C59.5266 32.86 60.7676 33.319 62.2296 33.319C64.4056 33.319 65.9186 32.401 66.7686 30.565H76.0506C75.5746 32.435 74.7076 34.118 73.4496 35.614C72.2256 37.11 70.6786 38.283 68.8086 39.133C66.9386 39.983 64.8476 40.408 62.5356 40.408C59.7476 40.408 57.2656 39.813 55.0896 38.623C52.9136 37.433 51.2136 35.733 49.9896 33.523C48.7656 31.313 48.1536 28.729 48.1536 25.771C48.1536 22.813 48.7486 20.229 49.9386 18.019C51.1626 15.809 52.8626 14.109 55.0386 12.919C57.2146 11.729 59.7136 11.134 62.5356 11.134C65.2896 11.134 67.7376 11.712 69.8796 12.868C72.0216 14.024 73.6876 15.673 74.8776 17.815C76.1016 19.957 76.7136 22.456 76.7136 25.312ZM67.7886 23.017C67.7886 21.521 67.2786 20.331 66.2586 19.447C65.2386 18.563 63.9636 18.121 62.4336 18.121C60.9716 18.121 59.7306 18.546 58.7106 19.396C57.7246 20.246 57.1126 21.453 56.8746 23.017H67.7886ZM92.8913 40.408C90.4093 40.408 88.1993 39.983 86.2613 39.133C84.3233 38.283 82.7933 37.127 81.6713 35.665C80.5493 34.169 79.9203 32.503 79.7843 30.667H88.4033C88.5053 31.653 88.9643 32.452 89.7803 33.064C90.5963 33.676 91.5993 33.982 92.7893 33.982C93.8773 33.982 94.7103 33.778 95.2883 33.37C95.9003 32.928 96.2063 32.367 96.2063 31.687C96.2063 30.871 95.7813 30.276 94.9313 29.902C94.0813 29.494 92.7043 29.052 90.8003 28.576C88.7603 28.1 87.0603 27.607 85.7003 27.097C84.3403 26.553 83.1673 25.72 82.1813 24.598C81.1953 23.442 80.7023 21.895 80.7023 19.957C80.7023 18.325 81.1443 16.846 82.0283 15.52C82.9463 14.16 84.2723 13.089 86.0063 12.307C87.7743 11.525 89.8653 11.134 92.2793 11.134C95.8493 11.134 98.6543 12.018 100.694 13.786C102.768 15.554 103.958 17.9 104.264 20.824H96.2063C96.0703 19.838 95.6283 19.056 94.8803 18.478C94.1663 17.9 93.2143 17.611 92.0243 17.611C91.0043 17.611 90.2223 17.815 89.6783 18.223C89.1343 18.597 88.8623 19.124 88.8623 19.804C88.8623 20.62 89.2873 21.232 90.1373 21.64C91.0213 22.048 92.3813 22.456 94.2173 22.864C96.3253 23.408 98.0423 23.952 99.3683 24.496C100.694 25.006 101.85 25.856 102.836 27.046C103.856 28.202 104.383 29.766 104.417 31.738C104.417 33.404 103.941 34.9 102.989 36.226C102.071 37.518 100.728 38.538 98.9603 39.286C97.2263 40.034 95.2033 40.408 92.8913 40.408ZM127.246 11.236C130.51 11.236 133.128 12.324 135.1 14.5C137.072 16.642 138.058 19.6 138.058 23.374V40H129.388V24.547C129.388 22.643 128.895 21.164 127.909 20.11C126.923 19.056 125.597 18.529 123.931 18.529C122.265 18.529 120.939 19.056 119.953 20.11C118.967 21.164 118.474 22.643 118.474 24.547V40H109.753V2.26H118.474V15.367C119.358 14.109 120.565 13.106 122.095 12.358C123.625 11.61 125.342 11.236 127.246 11.236ZM163.753 21.793C165.657 22.133 167.272 23.136 168.598 24.802C169.924 26.468 170.587 28.355 170.587 30.463C170.587 32.265 170.111 33.897 169.159 35.359C168.241 36.787 166.898 37.926 165.13 38.776C163.362 39.592 161.305 40 158.959 40H144.781V4.555H158.296C160.71 4.555 162.784 4.963 164.518 5.779C166.252 6.595 167.561 7.7 168.445 9.094C169.329 10.454 169.771 11.984 169.771 13.684C169.771 15.724 169.227 17.424 168.139 18.784C167.051 20.144 165.589 21.147 163.753 21.793ZM150.595 19.447H157.786C159.69 19.447 161.169 19.022 162.223 18.172C163.311 17.288 163.855 16.03 163.855 14.398C163.855 12.8 163.311 11.559 162.223 10.675C161.169 9.757 159.69 9.298 157.786 9.298H150.595V19.447ZM158.449 35.257C160.421 35.257 161.968 34.781 163.09 33.829C164.212 32.877 164.773 31.551 164.773 29.851C164.773 28.117 164.178 26.74 162.988 25.72C161.798 24.7 160.217 24.19 158.245 24.19H150.595V35.257H158.449ZM179.863 8.176C178.809 8.176 177.925 7.819 177.211 7.105C176.497 6.391 176.14 5.507 176.14 4.453C176.14 3.399 176.497 2.515 177.211 1.801C177.925 1.087 178.809 0.729998 179.863 0.729998C180.883 0.729998 181.75 1.087 182.464 1.801C183.178 2.515 183.535 3.399 183.535 4.453C183.535 5.507 183.178 6.391 182.464 7.105C181.75 7.819 180.883 8.176 179.863 8.176ZM182.719 11.899V40H176.905V11.899H182.719ZM197.135 16.642V32.197C197.135 33.251 197.373 34.016 197.849 34.492C198.359 34.934 199.209 35.155 200.399 35.155H203.969V40H199.379C196.761 40 194.755 39.388 193.361 38.164C191.967 36.94 191.27 34.951 191.27 32.197V16.642H187.955V11.899H191.27V4.912H197.135V11.899H203.969V16.642H197.135ZM235.083 25.261C235.083 26.315 235.015 27.267 234.879 28.117H213.408C213.578 30.361 214.411 32.163 215.907 33.523C217.403 34.883 219.239 35.563 221.415 35.563C224.543 35.563 226.753 34.254 228.045 31.636H234.318C233.468 34.22 231.921 36.345 229.677 38.011C227.467 39.643 224.713 40.459 221.415 40.459C218.729 40.459 216.315 39.864 214.173 38.674C212.065 37.45 210.399 35.75 209.175 33.574C207.985 31.364 207.39 28.814 207.39 25.924C207.39 23.034 207.968 20.501 209.124 18.325C210.314 16.115 211.963 14.415 214.071 13.225C216.213 12.035 218.661 11.44 221.415 11.44C224.067 11.44 226.43 12.018 228.504 13.174C230.578 14.33 232.193 15.962 233.349 18.07C234.505 20.144 235.083 22.541 235.083 25.261ZM229.014 23.425C228.98 21.283 228.215 19.566 226.719 18.274C225.223 16.982 223.37 16.336 221.16 16.336C219.154 16.336 217.437 16.982 216.009 18.274C214.581 19.532 213.731 21.249 213.459 23.425H229.014Z" fill="#40AA54"/>
</svg>
