<svg width="250" height="52" viewBox="0 0 250 52" fill="none" xmlns="http://www.w3.org/2000/svg">
<path d="M25.3494 13.52C24.7034 12.33 23.7684 11.429 22.5444 10.817C21.3544 10.171 19.9434 9.848 18.3114 9.848C15.4894 9.848 13.2284 10.783 11.5284 12.653C9.82839 14.489 8.97839 16.954 8.97839 20.048C8.97839 23.346 9.86239 25.93 11.6304 27.8C13.4324 29.636 15.8974 30.554 19.0254 30.554C21.1674 30.554 22.9694 30.01 24.4314 28.922C25.9274 27.834 27.0154 26.27 27.6954 24.23H16.6284V17.804H35.6004V25.913C34.9544 28.089 33.8494 30.112 32.2854 31.982C30.7554 33.852 28.8004 35.365 26.4204 36.521C24.0404 37.677 21.3544 38.255 18.3624 38.255C14.8264 38.255 11.6644 37.49 8.87639 35.96C6.12239 34.396 3.96339 32.237 2.39939 29.483C0.869387 26.729 0.104387 23.584 0.104387 20.048C0.104387 16.512 0.869387 13.367 2.39939 10.613C3.96339 7.825 6.12239 5.666 8.87639 4.136C11.6304 2.572 14.7754 1.79 18.3114 1.79C22.5954 1.79 26.1994 2.827 29.1234 4.901C32.0814 6.975 34.0364 9.848 34.9884 13.52H25.3494ZM49.152 14.285C50.172 12.721 51.447 11.497 52.977 10.613C54.507 9.695 56.207 9.236 58.077 9.236V18.467H55.68C53.504 18.467 51.872 18.943 50.784 19.895C49.696 20.813 49.152 22.445 49.152 24.791V38H40.431V9.542H49.152V14.285ZM75.1995 38.408C72.4115 38.408 69.8955 37.813 67.6515 36.623C65.4415 35.433 63.6905 33.733 62.3985 31.523C61.1405 29.313 60.5115 26.729 60.5115 23.771C60.5115 20.847 61.1575 18.28 62.4495 16.07C63.7415 13.826 65.5095 12.109 67.7535 10.919C69.9975 9.729 72.5135 9.134 75.3015 9.134C78.0895 9.134 80.6055 9.729 82.8495 10.919C85.0935 12.109 86.8615 13.826 88.1535 16.07C89.4455 18.28 90.0915 20.847 90.0915 23.771C90.0915 26.695 89.4285 29.279 88.1025 31.523C86.8105 33.733 85.0255 35.433 82.7475 36.623C80.5035 37.813 77.9875 38.408 75.1995 38.408ZM75.1995 30.86C76.8655 30.86 78.2765 30.248 79.4325 29.024C80.6225 27.8 81.2175 26.049 81.2175 23.771C81.2175 21.493 80.6395 19.742 79.4835 18.518C78.3615 17.294 76.9675 16.682 75.3015 16.682C73.6015 16.682 72.1905 17.294 71.0685 18.518C69.9465 19.708 69.3855 21.459 69.3855 23.771C69.3855 26.049 69.9295 27.8 71.0175 29.024C72.1395 30.248 73.5335 30.86 75.1995 30.86ZM106.295 38.408C103.813 38.408 101.603 37.983 99.6652 37.133C97.7272 36.283 96.1972 35.127 95.0752 33.665C93.9532 32.169 93.3242 30.503 93.1882 28.667H101.807C101.909 29.653 102.368 30.452 103.184 31.064C104 31.676 105.003 31.982 106.193 31.982C107.281 31.982 108.114 31.778 108.692 31.37C109.304 30.928 109.61 30.367 109.61 29.687C109.61 28.871 109.185 28.276 108.335 27.902C107.485 27.494 106.108 27.052 104.204 26.576C102.164 26.1 100.464 25.607 99.1042 25.097C97.7442 24.553 96.5712 23.72 95.5852 22.598C94.5992 21.442 94.1062 19.895 94.1062 17.957C94.1062 16.325 94.5482 14.846 95.4322 13.52C96.3502 12.16 97.6762 11.089 99.4102 10.307C101.178 9.525 103.269 9.134 105.683 9.134C109.253 9.134 112.058 10.018 114.098 11.786C116.172 13.554 117.362 15.9 117.668 18.824H109.61C109.474 17.838 109.032 17.056 108.284 16.478C107.57 15.9 106.618 15.611 105.428 15.611C104.408 15.611 103.626 15.815 103.082 16.223C102.538 16.597 102.266 17.124 102.266 17.804C102.266 18.62 102.691 19.232 103.541 19.64C104.425 20.048 105.785 20.456 107.621 20.864C109.729 21.408 111.446 21.952 112.772 22.496C114.098 23.006 115.254 23.856 116.24 25.046C117.26 26.202 117.787 27.766 117.821 29.738C117.821 31.404 117.345 32.9 116.393 34.226C115.475 35.518 114.132 36.538 112.364 37.286C110.63 38.034 108.607 38.408 106.295 38.408ZM136.111 38.357C133.493 38.357 131.147 37.932 129.073 37.082C126.999 36.232 125.333 34.974 124.075 33.308C122.851 31.642 122.205 29.636 122.137 27.29H131.419C131.555 28.616 132.014 29.636 132.796 30.35C133.578 31.03 134.598 31.37 135.856 31.37C137.148 31.37 138.168 31.081 138.916 30.503C139.664 29.891 140.038 29.058 140.038 28.004C140.038 27.12 139.732 26.389 139.12 25.811C138.542 25.233 137.811 24.757 136.927 24.383C136.077 24.009 134.853 23.584 133.255 23.108C130.943 22.394 129.056 21.68 127.594 20.966C126.132 20.252 124.874 19.198 123.82 17.804C122.766 16.41 122.239 14.591 122.239 12.347C122.239 9.015 123.446 6.414 125.86 4.544C128.274 2.64 131.419 1.688 135.295 1.688C139.239 1.688 142.418 2.64 144.832 4.544C147.246 6.414 148.538 9.032 148.708 12.398H139.273C139.205 11.242 138.78 10.341 137.998 9.695C137.216 9.015 136.213 8.675 134.989 8.675C133.935 8.675 133.085 8.964 132.439 9.542C131.793 10.086 131.47 10.885 131.47 11.939C131.47 13.095 132.014 13.996 133.102 14.642C134.19 15.288 135.89 15.985 138.202 16.733C140.514 17.515 142.384 18.263 143.812 18.977C145.274 19.691 146.532 20.728 147.586 22.088C148.64 23.448 149.167 25.199 149.167 27.341C149.167 29.381 148.64 31.234 147.586 32.9C146.566 34.566 145.07 35.892 143.098 36.878C141.126 37.864 138.797 38.357 136.111 38.357ZM169.732 9.44C171.874 9.44 173.778 9.899 175.444 10.817C177.144 11.735 178.47 13.095 179.422 14.897C180.408 16.699 180.901 18.875 180.901 21.425V38H175.138V22.292C175.138 19.776 174.509 17.855 173.251 16.529C171.993 15.169 170.276 14.489 168.1 14.489C165.924 14.489 164.19 15.169 162.898 16.529C161.64 17.855 161.011 19.776 161.011 22.292V38H155.197V0.26H161.011V13.163C161.997 11.973 163.238 11.055 164.734 10.409C166.264 9.763 167.93 9.44 169.732 9.44ZM200.506 38.459C197.854 38.459 195.457 37.864 193.315 36.674C191.173 35.45 189.49 33.75 188.266 31.574C187.042 29.364 186.43 26.814 186.43 23.924C186.43 21.068 187.059 18.535 188.317 16.325C189.575 14.115 191.292 12.415 193.468 11.225C195.644 10.035 198.075 9.44 200.761 9.44C203.447 9.44 205.878 10.035 208.054 11.225C210.23 12.415 211.947 14.115 213.205 16.325C214.463 18.535 215.092 21.068 215.092 23.924C215.092 26.78 214.446 29.313 213.154 31.523C211.862 33.733 210.094 35.45 207.85 36.674C205.64 37.864 203.192 38.459 200.506 38.459ZM200.506 33.41C202.002 33.41 203.396 33.053 204.688 32.339C206.014 31.625 207.085 30.554 207.901 29.126C208.717 27.698 209.125 25.964 209.125 23.924C209.125 21.884 208.734 20.167 207.952 18.773C207.17 17.345 206.133 16.274 204.841 15.56C203.549 14.846 202.155 14.489 200.659 14.489C199.163 14.489 197.769 14.846 196.477 15.56C195.219 16.274 194.216 17.345 193.468 18.773C192.72 20.167 192.346 21.884 192.346 23.924C192.346 26.95 193.111 29.296 194.641 30.962C196.205 32.594 198.16 33.41 200.506 33.41ZM226.653 14.03C227.639 12.738 228.982 11.65 230.682 10.766C232.382 9.882 234.303 9.44 236.445 9.44C238.893 9.44 241.12 10.052 243.126 11.276C245.166 12.466 246.764 14.149 247.92 16.325C249.076 18.501 249.654 21 249.654 23.822C249.654 26.644 249.076 29.177 247.92 31.421C246.764 33.631 245.166 35.365 243.126 36.623C241.12 37.847 238.893 38.459 236.445 38.459C234.303 38.459 232.399 38.034 230.733 37.184C229.067 36.3 227.707 35.212 226.653 33.92V51.362H220.839V9.899H226.653V14.03ZM243.738 23.822C243.738 21.884 243.33 20.218 242.514 18.824C241.732 17.396 240.678 16.325 239.352 15.611C238.06 14.863 236.666 14.489 235.17 14.489C233.708 14.489 232.314 14.863 230.988 15.611C229.696 16.359 228.642 17.447 227.826 18.875C227.044 20.303 226.653 21.986 226.653 23.924C226.653 25.862 227.044 27.562 227.826 29.024C228.642 30.452 229.696 31.54 230.988 32.288C232.314 33.036 233.708 33.41 235.17 33.41C236.666 33.41 238.06 33.036 239.352 32.288C240.678 31.506 241.732 30.384 242.514 28.922C243.33 27.46 243.738 25.76 243.738 23.822Z" fill="#40AA54"/>
</svg>
