<svg width="777" height="197" viewBox="0 0 777 197" fill="none" xmlns="http://www.w3.org/2000/svg">
<path d="M27.3494 151.52C26.7034 150.33 25.7684 149.429 24.5444 148.817C23.3544 148.171 21.9434 147.848 20.3114 147.848C17.4894 147.848 15.2284 148.783 13.5284 150.653C11.8284 152.489 10.9784 154.954 10.9784 158.048C10.9784 161.346 11.8624 163.93 13.6304 165.8C15.4324 167.636 17.8974 168.554 21.0254 168.554C23.1674 168.554 24.9694 168.01 26.4314 166.922C27.9274 165.834 29.0154 164.27 29.6954 162.23H18.6284V155.804H37.6004V163.913C36.9544 166.089 35.8494 168.112 34.2854 169.982C32.7554 171.852 30.8004 173.365 28.4204 174.521C26.0404 175.677 23.3544 176.255 20.3624 176.255C16.8264 176.255 13.6644 175.49 10.8764 173.96C8.12239 172.396 5.96339 170.237 4.39939 167.483C2.86939 164.729 2.10439 161.584 2.10439 158.048C2.10439 154.512 2.86939 151.367 4.39939 148.613C5.96339 145.825 8.12239 143.666 10.8764 142.136C13.6304 140.572 16.7754 139.79 20.3114 139.79C24.5954 139.79 28.1994 140.827 31.1234 142.901C34.0814 144.975 36.0364 147.848 36.9884 151.52H27.3494ZM51.152 152.285C52.172 150.721 53.447 149.497 54.977 148.613C56.507 147.695 58.207 147.236 60.077 147.236V156.467H57.68C55.504 156.467 53.872 156.943 52.784 157.895C51.696 158.813 51.152 160.445 51.152 162.791V176H42.431V147.542H51.152V152.285ZM77.1995 176.408C74.4115 176.408 71.8955 175.813 69.6515 174.623C67.4415 173.433 65.6905 171.733 64.3985 169.523C63.1405 167.313 62.5115 164.729 62.5115 161.771C62.5115 158.847 63.1575 156.28 64.4495 154.07C65.7415 151.826 67.5095 150.109 69.7535 148.919C71.9975 147.729 74.5135 147.134 77.3015 147.134C80.0895 147.134 82.6055 147.729 84.8495 148.919C87.0935 150.109 88.8615 151.826 90.1535 154.07C91.4455 156.28 92.0915 158.847 92.0915 161.771C92.0915 164.695 91.4285 167.279 90.1025 169.523C88.8105 171.733 87.0255 173.433 84.7475 174.623C82.5035 175.813 79.9875 176.408 77.1995 176.408ZM77.1995 168.86C78.8655 168.86 80.2765 168.248 81.4325 167.024C82.6225 165.8 83.2175 164.049 83.2175 161.771C83.2175 159.493 82.6395 157.742 81.4835 156.518C80.3615 155.294 78.9675 154.682 77.3015 154.682C75.6015 154.682 74.1905 155.294 73.0685 156.518C71.9465 157.708 71.3855 159.459 71.3855 161.771C71.3855 164.049 71.9295 165.8 73.0175 167.024C74.1395 168.248 75.5335 168.86 77.1995 168.86ZM108.295 176.408C105.813 176.408 103.603 175.983 101.665 175.133C99.7272 174.283 98.1972 173.127 97.0752 171.665C95.9532 170.169 95.3242 168.503 95.1882 166.667H103.807C103.909 167.653 104.368 168.452 105.184 169.064C106 169.676 107.003 169.982 108.193 169.982C109.281 169.982 110.114 169.778 110.692 169.37C111.304 168.928 111.61 168.367 111.61 167.687C111.61 166.871 111.185 166.276 110.335 165.902C109.485 165.494 108.108 165.052 106.204 164.576C104.164 164.1 102.464 163.607 101.104 163.097C99.7442 162.553 98.5712 161.72 97.5852 160.598C96.5992 159.442 96.1062 157.895 96.1062 155.957C96.1062 154.325 96.5482 152.846 97.4322 151.52C98.3502 150.16 99.6762 149.089 101.41 148.307C103.178 147.525 105.269 147.134 107.683 147.134C111.253 147.134 114.058 148.018 116.098 149.786C118.172 151.554 119.362 153.9 119.668 156.824H111.61C111.474 155.838 111.032 155.056 110.284 154.478C109.57 153.9 108.618 153.611 107.428 153.611C106.408 153.611 105.626 153.815 105.082 154.223C104.538 154.597 104.266 155.124 104.266 155.804C104.266 156.62 104.691 157.232 105.541 157.64C106.425 158.048 107.785 158.456 109.621 158.864C111.729 159.408 113.446 159.952 114.772 160.496C116.098 161.006 117.254 161.856 118.24 163.046C119.26 164.202 119.787 165.766 119.821 167.738C119.821 169.404 119.345 170.9 118.393 172.226C117.475 173.518 116.132 174.538 114.364 175.286C112.63 176.034 110.607 176.408 108.295 176.408ZM138.111 176.357C135.493 176.357 133.147 175.932 131.073 175.082C128.999 174.232 127.333 172.974 126.075 171.308C124.851 169.642 124.205 167.636 124.137 165.29H133.419C133.555 166.616 134.014 167.636 134.796 168.35C135.578 169.03 136.598 169.37 137.856 169.37C139.148 169.37 140.168 169.081 140.916 168.503C141.664 167.891 142.038 167.058 142.038 166.004C142.038 165.12 141.732 164.389 141.12 163.811C140.542 163.233 139.811 162.757 138.927 162.383C138.077 162.009 136.853 161.584 135.255 161.108C132.943 160.394 131.056 159.68 129.594 158.966C128.132 158.252 126.874 157.198 125.82 155.804C124.766 154.41 124.239 152.591 124.239 150.347C124.239 147.015 125.446 144.414 127.86 142.544C130.274 140.64 133.419 139.688 137.295 139.688C141.239 139.688 144.418 140.64 146.832 142.544C149.246 144.414 150.538 147.032 150.708 150.398H141.273C141.205 149.242 140.78 148.341 139.998 147.695C139.216 147.015 138.213 146.675 136.989 146.675C135.935 146.675 135.085 146.964 134.439 147.542C133.793 148.086 133.47 148.885 133.47 149.939C133.47 151.095 134.014 151.996 135.102 152.642C136.19 153.288 137.89 153.985 140.202 154.733C142.514 155.515 144.384 156.263 145.812 156.977C147.274 157.691 148.532 158.728 149.586 160.088C150.64 161.448 151.167 163.199 151.167 165.341C151.167 167.381 150.64 169.234 149.586 170.9C148.566 172.566 147.07 173.892 145.098 174.878C143.126 175.864 140.797 176.357 138.111 176.357ZM171.732 147.44C173.874 147.44 175.778 147.899 177.444 148.817C179.144 149.735 180.47 151.095 181.422 152.897C182.408 154.699 182.901 156.875 182.901 159.425V176H177.138V160.292C177.138 157.776 176.509 155.855 175.251 154.529C173.993 153.169 172.276 152.489 170.1 152.489C167.924 152.489 166.19 153.169 164.898 154.529C163.64 155.855 163.011 157.776 163.011 160.292V176H157.197V138.26H163.011V151.163C163.997 149.973 165.238 149.055 166.734 148.409C168.264 147.763 169.93 147.44 171.732 147.44ZM202.506 176.459C199.854 176.459 197.457 175.864 195.315 174.674C193.173 173.45 191.49 171.75 190.266 169.574C189.042 167.364 188.43 164.814 188.43 161.924C188.43 159.068 189.059 156.535 190.317 154.325C191.575 152.115 193.292 150.415 195.468 149.225C197.644 148.035 200.075 147.44 202.761 147.44C205.447 147.44 207.878 148.035 210.054 149.225C212.23 150.415 213.947 152.115 215.205 154.325C216.463 156.535 217.092 159.068 217.092 161.924C217.092 164.78 216.446 167.313 215.154 169.523C213.862 171.733 212.094 173.45 209.85 174.674C207.64 175.864 205.192 176.459 202.506 176.459ZM202.506 171.41C204.002 171.41 205.396 171.053 206.688 170.339C208.014 169.625 209.085 168.554 209.901 167.126C210.717 165.698 211.125 163.964 211.125 161.924C211.125 159.884 210.734 158.167 209.952 156.773C209.17 155.345 208.133 154.274 206.841 153.56C205.549 152.846 204.155 152.489 202.659 152.489C201.163 152.489 199.769 152.846 198.477 153.56C197.219 154.274 196.216 155.345 195.468 156.773C194.72 158.167 194.346 159.884 194.346 161.924C194.346 164.95 195.111 167.296 196.641 168.962C198.205 170.594 200.16 171.41 202.506 171.41ZM228.653 152.03C229.639 150.738 230.982 149.65 232.682 148.766C234.382 147.882 236.303 147.44 238.445 147.44C240.893 147.44 243.12 148.052 245.126 149.276C247.166 150.466 248.764 152.149 249.92 154.325C251.076 156.501 251.654 159 251.654 161.822C251.654 164.644 251.076 167.177 249.92 169.421C248.764 171.631 247.166 173.365 245.126 174.623C243.12 175.847 240.893 176.459 238.445 176.459C236.303 176.459 234.399 176.034 232.733 175.184C231.067 174.3 229.707 173.212 228.653 171.92V189.362H222.839V147.899H228.653V152.03ZM245.738 161.822C245.738 159.884 245.33 158.218 244.514 156.824C243.732 155.396 242.678 154.325 241.352 153.611C240.06 152.863 238.666 152.489 237.17 152.489C235.708 152.489 234.314 152.863 232.988 153.611C231.696 154.359 230.642 155.447 229.826 156.875C229.044 158.303 228.653 159.986 228.653 161.924C228.653 163.862 229.044 165.562 229.826 167.024C230.642 168.452 231.696 169.54 232.988 170.288C234.314 171.036 235.708 171.41 237.17 171.41C238.666 171.41 240.06 171.036 241.352 170.288C242.678 169.506 243.732 168.384 244.514 166.922C245.33 165.46 245.738 163.76 245.738 161.822Z" fill="#40AA54"/>
<path d="M735.683 23.3675C737.332 23.5092 738.914 24.0924 740.26 25.0561C741.455 24.1918 742.841 23.6271 744.299 23.4095L746.073 8.34169C742.878 7.26463 739.365 7.73047 736.561 9.60281C733.757 11.4752 731.98 14.5422 731.751 17.9058C733.557 19.3126 734.922 21.2082 735.683 23.3675L735.683 23.3675Z" fill="#40AA54"/>
<path d="M742.591 4.66011C743.989 4.66216 745.379 4.8753 746.713 5.29234C746.895 4.75188 747.114 4.22499 747.37 3.71566L746.57 1.3219L745.242 2.65159C744.77 3.12451 744.048 3.24213 743.45 2.94363L740.89 1.66364L742.1 4.68497C742.264 4.67875 742.424 4.66011 742.591 4.66011L742.591 4.66011Z" fill="#40AA54"/>
<path d="M711.607 1C711.607 0.447715 712.055 0 712.607 0H725.607C726.16 0 726.607 0.447715 726.607 1V5C726.607 5.55228 726.16 6 725.607 6H712.607C712.055 6 711.607 5.55228 711.607 5V1Z" fill="#40AA54"/>
<path d="M753.804 28.054C754.206 27.9927 754.611 27.9615 755.017 27.9608C757.981 27.9677 760.763 29.3893 762.505 31.7868L767.398 11.4033C768.193 8.06658 767.075 4.56402 764.494 2.30453C761.913 0.0450404 758.294 -0.599986 755.091 0.628908C751.889 1.8578 749.63 4.75862 749.223 8.16454L747.421 23.4793C750.125 23.9755 752.466 25.6532 753.804 28.054V28.054ZM753.719 7.78863L763.039 9.342L762.53 12.4053L753.209 10.8519L753.719 7.78863ZM752.165 15.5555L761.486 17.1089L760.976 20.1722L751.656 18.6188L752.165 15.5555Z" fill="#40AA54"/>
<path d="M762.785 38.8345C761.927 38.8345 761.231 38.139 761.231 37.2811C761.231 33.8495 758.449 31.0676 755.018 31.0676C754.452 31.0776 753.89 31.166 753.348 31.3301C752.579 31.5442 751.774 31.1413 751.484 30.3981C750.741 28.4411 749.059 26.9923 747.014 26.5472C744.969 26.1021 742.837 26.721 741.348 28.1923C740.744 28.7844 739.777 28.7844 739.173 28.1923C738.384 27.4228 737.403 26.8785 736.332 26.6156C736.346 26.8595 736.377 27.1018 736.377 27.3473V39.1716C736.952 39.395 737.479 39.7261 737.93 40.1471C738.822 39.3064 740 38.837 741.225 38.8345C742.51 38.838 743.742 39.3481 744.654 40.2543L747.894 43.4946H768.777C768.071 40.7596 765.609 38.8451 762.785 38.8345L762.785 38.8345Z" fill="#40AA54"/>
<path d="M757.214 52.815H773.658C775.374 52.815 776.765 51.424 776.765 49.7082C776.765 47.9924 775.374 46.6014 773.658 46.6014H751L757.214 52.815Z" fill="#40AA54"/>
<path d="M743.501 52.8149L737.93 47.2445L732.36 52.8149H743.501Z" fill="#40AA54"/>
<path d="M771.898 55.9216H760.321L770.612 66.2128L771.898 55.9216Z" fill="#40AA54"/>
<path d="M708.416 29.5143C708.416 28.6563 709.112 27.9609 709.97 27.9609H728.61C729.468 27.9609 730.164 28.6563 730.164 29.5143V41.2982L731.208 40.2543C731.785 39.6895 732.494 39.2779 733.27 39.0567L733.27 27.3473C733.274 24.3669 731.783 21.5831 729.302 19.933C725.958 17.7085 723.949 13.958 723.95 9.94167V9.32031H714.63V9.94166C714.634 13.9607 712.625 17.7147 709.278 19.9408C706.799 21.5893 705.309 24.3696 705.31 27.3473V43.4947H708.416V29.5143Z" fill="#40AA54"/>
<path d="M715.54 55.9216H703.962L705.249 66.2128L715.54 55.9216Z" fill="#40AA54"/>
<path d="M758.124 82.3291C758.124 84.9028 756.038 86.9892 753.464 86.9892C750.89 86.9892 748.804 84.9028 748.804 82.3291V63.6885C748.807 62.229 749.498 60.8565 750.668 59.9837L746.607 55.9216H729.253L725.192 59.9837C726.362 60.8565 727.053 62.229 727.056 63.6885V82.3291C727.056 84.9028 724.97 86.9892 722.396 86.9892C719.823 86.9892 717.736 84.9028 717.736 82.3291V67.4384L706.772 78.4021L707.725 86.0137C708.016 88.3454 709.998 90.0953 712.348 90.096H763.513C765.863 90.0953 767.844 88.3454 768.136 86.0137L769.088 78.4021L758.124 67.4384L758.124 82.3291ZM742.59 82.3291C742.59 84.9028 740.504 86.9892 737.93 86.9892C735.356 86.9892 733.27 84.9028 733.27 82.3291V63.6885C733.27 61.1148 735.356 59.0284 737.93 59.0284C740.504 59.0284 742.59 61.1148 742.59 63.6885V82.3291Z" fill="#40AA54"/>
<path d="M755.017 82.3291V64.3316L752.93 62.2439C752.321 62.4641 751.914 63.041 751.911 63.6885V82.3291C751.911 83.187 752.606 83.8825 753.464 83.8825C754.322 83.8825 755.017 83.187 755.017 82.3291Z" fill="#40AA54"/>
<path d="M742.457 42.4508C741.959 41.9523 741.21 41.8031 740.559 42.0728C739.908 42.3426 739.483 42.978 739.484 43.6826C739.482 44.1449 739.666 44.5885 739.993 44.9144L773.792 78.7129C774.29 79.2113 775.039 79.3605 775.69 79.0908C776.341 78.8211 776.765 78.1857 776.765 77.4811C776.767 77.0188 776.583 76.5751 776.256 76.2492L742.457 42.4508Z" fill="#40AA54"/>
<path d="M711.523 31.0676H727.057V43.4947H711.523V31.0676Z" fill="#40AA54"/>
<path d="M737.93 62.1353C737.072 62.1353 736.377 62.8307 736.377 63.6886V82.3292C736.377 83.1871 737.072 83.8826 737.93 83.8826C738.788 83.8826 739.484 83.1871 739.484 82.3292V63.6886C739.484 62.8307 738.788 62.1353 737.93 62.1353Z" fill="#40AA54"/>
<path d="M720.843 64.3316V82.3291C720.843 83.187 721.539 83.8825 722.397 83.8825C723.255 83.8825 723.95 83.187 723.95 82.3291V63.6885C723.947 63.0409 723.54 62.4641 722.931 62.2439L720.843 64.3316Z" fill="#40AA54"/>
<path d="M736.377 43.6826C736.377 42.978 735.953 42.3425 735.302 42.0728C734.651 41.8031 733.902 41.9523 733.404 42.4508L699.605 76.2492C699.107 76.7473 698.958 77.4966 699.227 78.1476C699.497 78.7986 700.133 79.2228 700.837 79.2224C701.299 79.2207 701.741 79.0377 702.069 78.7129L735.867 44.9144C736.195 44.5885 736.379 44.1449 736.377 43.6826L736.377 43.6826Z" fill="#40AA54"/>
<path d="M702.202 52.815H718.647L724.86 46.6014H702.202C700.487 46.6014 699.096 47.9924 699.096 49.7082C699.096 51.424 700.487 52.815 702.202 52.815Z" fill="#40AA54"/>
</svg>
