<svg width="68" height="68" viewBox="0 0 68 68" fill="none" xmlns="http://www.w3.org/2000/svg">
<path d="M34 0C40.7246 0 47.2981 1.99407 52.8894 5.73003C58.4807 9.466 62.8385 14.7761 65.4119 20.9888C67.9853 27.2015 68.6586 34.0377 67.3467 40.6331C66.0348 47.2284 62.7966 53.2866 58.0416 58.0416C53.2866 62.7966 47.2284 66.0348 40.6331 67.3467C34.0377 68.6586 27.2015 67.9853 20.9888 65.4119C14.7761 62.8385 9.466 58.4807 5.73003 52.8894C1.99407 47.2981 0 40.7246 0 34C0 24.9826 3.58213 16.3346 9.95837 9.95837C16.3346 3.58213 24.9826 0 34 0Z" fill="#F5F5FF "/>
<path d="M33.9999 5.47168C39.6422 5.47168 45.1578 7.14482 49.8492 10.2795C54.5406 13.4142 58.1971 17.8697 60.3564 23.0825C62.5156 28.2953 63.0805 34.0313 61.9798 39.5652C60.879 45.0991 58.162 50.1823 54.1723 54.172C50.1826 58.1617 45.0993 60.8788 39.5655 61.9795C34.0316 63.0803 28.2955 62.5153 23.0827 60.3561C17.8699 58.1969 13.4145 54.5404 10.2798 49.849C7.14506 45.1576 5.47192 39.642 5.47192 33.9997C5.47192 26.4336 8.47754 19.1774 13.8276 13.8273C19.1776 8.4773 26.4338 5.47168 33.9999 5.47168Z" fill="#F5F5FF"/>
<path d="M47.789 30.0001V34.1861C47.789 34.4635 47.6788 34.7295 47.4826 34.9257C47.2865 35.1219 47.0204 35.2321 46.743 35.2321H46.055L45.614 39.1561C45.583 39.4319 45.4436 39.6841 45.2267 39.8572C45.0097 40.0303 44.7328 40.1101 44.457 40.0791C44.1812 40.048 43.929 39.9087 43.7559 39.6917C43.5828 39.4747 43.503 39.1979 43.534 38.9221L44.079 34.0691C44.1078 33.8133 44.2297 33.5771 44.4215 33.4056C44.6134 33.234 44.8617 33.1392 45.119 33.1391H45.7V31.0461H23.092V33.1391H40.935C41.2125 33.1391 41.4787 33.2493 41.675 33.4456C41.8712 33.6418 41.9815 33.908 41.9815 34.1856C41.9815 34.4631 41.8712 34.7293 41.675 34.9255C41.4787 35.1218 41.2125 35.2321 40.935 35.2321H24.86L25.893 43.8531C25.9534 44.3618 26.1983 44.8308 26.5813 45.1712C26.9642 45.5116 27.4586 45.6997 27.971 45.7001H40.9C41.4147 45.7005 41.9115 45.5111 42.2953 45.1681C42.6791 44.8251 42.9229 44.3526 42.98 43.8411C43.011 43.5652 43.1504 43.313 43.3673 43.1399C43.5843 42.9668 43.8612 42.887 44.137 42.9181C44.4128 42.9491 44.665 43.0884 44.8381 43.3054C45.0112 43.5224 45.091 43.7992 45.06 44.0751C44.9449 45.0975 44.457 46.0417 43.6895 46.727C42.9221 47.4124 41.9289 47.7909 40.9 47.7901H27.971C26.947 47.7893 25.9587 47.4134 25.1929 46.7335C24.4272 46.0536 23.937 45.1168 23.815 44.1001L22.752 35.2301H22.046C21.7689 35.2301 21.5032 35.1201 21.3071 34.9244C21.111 34.7287 21.0005 34.4631 21 34.1861V30.0001C20.9999 29.8626 21.0268 29.7265 21.0793 29.5995C21.1318 29.4724 21.2089 29.357 21.306 29.2598C21.4032 29.1625 21.5185 29.0854 21.6455 29.0328C21.7725 28.9801 21.9086 28.9531 22.046 28.9531H25.758L31.288 21.4271C31.4523 21.2033 31.6987 21.0541 31.9731 21.0121C32.2475 20.9701 32.5273 21.0388 32.751 21.2031C32.9747 21.3674 33.124 21.6138 33.166 21.8882C33.208 22.1625 33.1393 22.4423 32.975 22.6661L28.355 28.9531H40.473L35.853 22.6661C35.6983 22.4419 35.6369 22.1663 35.6821 21.8977C35.7273 21.629 35.8753 21.3886 36.0949 21.2274C36.3144 21.0661 36.5881 20.9968 36.8579 21.0341C37.1278 21.0714 37.3724 21.2123 37.54 21.4271L43.07 28.9531H46.743C47.0205 28.9533 47.2866 29.0637 47.4827 29.2601C47.6788 29.4564 47.789 29.7225 47.789 30.0001ZM33.348 38.3721V42.5581C33.348 42.8356 33.4583 43.1018 33.6545 43.298C33.8508 43.4943 34.117 43.6046 34.3945 43.6046C34.672 43.6046 34.9382 43.4943 35.1345 43.298C35.3307 43.1018 35.441 42.8356 35.441 42.5581V38.3721C35.441 38.0945 35.3307 37.8283 35.1345 37.6321C34.9382 37.4358 34.672 37.3256 34.3945 37.3256C34.117 37.3256 33.8508 37.4358 33.6545 37.6321C33.4583 37.8283 33.348 38.0945 33.348 38.3721ZM37.534 38.3721V42.5581C37.534 42.8356 37.6443 43.1018 37.8405 43.298C38.0368 43.4943 38.3029 43.6046 38.5805 43.6046C38.858 43.6046 39.1242 43.4943 39.3205 43.298C39.5167 43.1018 39.627 42.8356 39.627 42.5581V38.3721C39.627 38.0945 39.5167 37.8283 39.3205 37.6321C39.1242 37.4358 38.858 37.3256 38.5805 37.3256C38.3029 37.3256 38.0368 37.4358 37.8405 37.6321C37.6443 37.8283 37.534 38.0945 37.534 38.3721ZM29.162 38.3721V42.5581C29.162 42.8356 29.2723 43.1018 29.4685 43.298C29.6648 43.4943 29.931 43.6046 30.2085 43.6046C30.486 43.6046 30.7522 43.4943 30.9485 43.298C31.1447 43.1018 31.255 42.8356 31.255 42.5581V38.3721C31.255 38.0945 31.1447 37.8283 30.9485 37.6321C30.7522 37.4358 30.486 37.3256 30.2085 37.3256C29.931 37.3256 29.6648 37.4358 29.4685 37.6321C29.2723 37.8283 29.162 38.0945 29.162 38.3721Z" fill="#40AA54 "/>
</svg>
