<svg width="49" height="49" viewBox="0 0 49 49" fill="none" xmlns="http://www.w3.org/2000/svg">
<circle cx="24.5" cy="24.5" r="22.5" fill="white" stroke="#40AA54" stroke-width="4"/>
<path d="M27.0698 25.9448C27.0698 27.4335 25.8587 28.6445 24.37 28.6445C22.8813 28.6445 21.6707 27.4335 21.6707 25.9448C21.6707 24.456 22.8813 23.245 24.37 23.245C25.8587 23.245 27.0698 24.4565 27.0698 25.9448ZM32.7401 22.1112V29.7792C32.7401 30.8015 31.9113 31.6303 30.889 31.6303H17.8511C16.8288 31.6303 16 30.8015 16 29.7792V22.1112C16 21.089 16.8288 20.2601 17.8511 20.2601H20.1279V19.6197C20.1279 18.7252 20.8526 18 21.7475 18H26.9925C27.8875 18 28.6122 18.7252 28.6122 19.6197V20.2597H30.889C31.9113 20.2601 32.7401 21.089 32.7401 22.1112ZM28.4581 25.9448C28.4581 23.6906 26.6242 21.8567 24.37 21.8567C22.1164 21.8567 20.2824 23.6906 20.2824 25.9448C20.2824 28.1989 22.1164 30.0328 24.37 30.0328C26.6242 30.0328 28.4581 28.1989 28.4581 25.9448Z" fill="#40AA54"/>
</svg>
