<svg width="242" height="149" viewBox="0 0 242 149" fill="none" xmlns="http://www.w3.org/2000/svg">
<path d="M13.5894 123.599L8.52938 133.345V138.889H6.02138V133.345L0.939375 123.599H3.73338L7.27538 131.101L10.8174 123.599H13.5894ZM20.8377 139.087C19.6937 139.087 18.6597 138.83 17.7357 138.317C16.8117 137.789 16.0857 137.055 15.5577 136.117C15.0297 135.163 14.7657 134.063 14.7657 132.817C14.7657 131.585 15.037 130.492 15.5797 129.539C16.1224 128.585 16.863 127.852 17.8017 127.339C18.7404 126.825 19.789 126.569 20.9477 126.569C22.1064 126.569 23.155 126.825 24.0937 127.339C25.0324 127.852 25.773 128.585 26.3157 129.539C26.8584 130.492 27.1297 131.585 27.1297 132.817C27.1297 134.049 26.851 135.141 26.2937 136.095C25.7364 137.048 24.9737 137.789 24.0057 138.317C23.0524 138.83 21.9964 139.087 20.8377 139.087ZM20.8377 136.909C21.483 136.909 22.0844 136.755 22.6417 136.447C23.2137 136.139 23.6757 135.677 24.0277 135.061C24.3797 134.445 24.5557 133.697 24.5557 132.817C24.5557 131.937 24.387 131.196 24.0497 130.595C23.7124 129.979 23.265 129.517 22.7077 129.209C22.1504 128.901 21.549 128.747 20.9037 128.747C20.2584 128.747 19.657 128.901 19.0997 129.209C18.557 129.517 18.1244 129.979 17.8017 130.595C17.479 131.196 17.3177 131.937 17.3177 132.817C17.3177 134.122 17.6477 135.134 18.3077 135.853C18.9824 136.557 19.8257 136.909 20.8377 136.909ZM40.587 126.767V138.889H38.079V137.459C37.683 137.957 37.1623 138.353 36.517 138.647C35.8863 138.925 35.2117 139.065 34.493 139.065C33.5397 139.065 32.6817 138.867 31.919 138.471C31.171 138.075 30.577 137.488 30.137 136.711C29.7117 135.933 29.499 134.995 29.499 133.895V126.767H31.985V133.521C31.985 134.606 32.2563 135.442 32.799 136.029C33.3417 136.601 34.0823 136.887 35.021 136.887C35.9597 136.887 36.7003 136.601 37.243 136.029C37.8003 135.442 38.079 134.606 38.079 133.521V126.767H40.587ZM46.4041 128.527C46.7708 127.911 47.2548 127.434 47.8561 127.097C48.4721 126.745 49.1981 126.569 50.0341 126.569V129.165H49.3961C48.4134 129.165 47.6654 129.414 47.1521 129.913C46.6534 130.411 46.4041 131.277 46.4041 132.509V138.889H43.8961V126.767H46.4041V128.527ZM77.9643 123.599L73.4323 138.889H70.5943L67.3823 127.317L63.9723 138.889L61.1563 138.911L56.8223 123.599H59.4843L62.6523 136.051L66.0843 123.599H68.9003L72.0903 135.985L75.2803 123.599H77.9643ZM81.3088 125.161C80.8541 125.161 80.4728 125.007 80.1648 124.699C79.8568 124.391 79.7028 124.009 79.7028 123.555C79.7028 123.1 79.8568 122.719 80.1648 122.411C80.4728 122.103 80.8541 121.949 81.3088 121.949C81.7488 121.949 82.1228 122.103 82.4308 122.411C82.7388 122.719 82.8928 123.1 82.8928 123.555C82.8928 124.009 82.7388 124.391 82.4308 124.699C82.1228 125.007 81.7488 125.161 81.3088 125.161ZM82.5408 126.767V138.889H80.0328V126.767H82.5408ZM90.2336 139.087C89.2803 139.087 88.4223 138.918 87.6596 138.581C86.9116 138.229 86.3176 137.759 85.8776 137.173C85.4376 136.571 85.2029 135.904 85.1736 135.171H87.7696C87.8136 135.684 88.0556 136.117 88.4956 136.469C88.9503 136.806 89.5149 136.975 90.1896 136.975C90.8936 136.975 91.4363 136.843 91.8176 136.579C92.2136 136.3 92.4116 135.948 92.4116 135.523C92.4116 135.068 92.1916 134.731 91.7516 134.511C91.3263 134.291 90.6443 134.049 89.7056 133.785C88.7963 133.535 88.0556 133.293 87.4836 133.059C86.9116 132.824 86.4129 132.465 85.9876 131.981C85.5769 131.497 85.3716 130.859 85.3716 130.067C85.3716 129.421 85.5623 128.835 85.9436 128.307C86.3249 127.764 86.8676 127.339 87.5716 127.031C88.2903 126.723 89.1116 126.569 90.0356 126.569C91.4143 126.569 92.5216 126.921 93.3576 127.625C94.2083 128.314 94.6629 129.26 94.7216 130.463H92.2136C92.1696 129.92 91.9496 129.487 91.5536 129.165C91.1576 128.842 90.6223 128.681 89.9476 128.681C89.2876 128.681 88.7816 128.805 88.4296 129.055C88.0776 129.304 87.9016 129.634 87.9016 130.045C87.9016 130.367 88.0189 130.639 88.2536 130.859C88.4883 131.079 88.7743 131.255 89.1116 131.387C89.4489 131.504 89.9476 131.658 90.6076 131.849C91.4876 132.083 92.2063 132.325 92.7636 132.575C93.3356 132.809 93.8269 133.161 94.2376 133.631C94.6483 134.1 94.8609 134.723 94.8756 135.501C94.8756 136.19 94.6849 136.806 94.3036 137.349C93.9223 137.891 93.3796 138.317 92.6756 138.625C91.9863 138.933 91.1723 139.087 90.2336 139.087ZM103.856 126.569C104.78 126.569 105.601 126.767 106.32 127.163C107.053 127.559 107.625 128.145 108.036 128.923C108.461 129.7 108.674 130.639 108.674 131.739V138.889H106.188V132.113C106.188 131.027 105.916 130.199 105.374 129.627C104.831 129.04 104.09 128.747 103.152 128.747C102.213 128.747 101.465 129.04 100.908 129.627C100.365 130.199 100.094 131.027 100.094 132.113V138.889H97.5855V122.609H100.094V128.175C100.519 127.661 101.054 127.265 101.7 126.987C102.36 126.708 103.078 126.569 103.856 126.569ZM114.381 122.609V138.889H111.873V122.609H114.381ZM118.949 125.161C118.495 125.161 118.113 125.007 117.805 124.699C117.497 124.391 117.343 124.009 117.343 123.555C117.343 123.1 117.497 122.719 117.805 122.411C118.113 122.103 118.495 121.949 118.949 121.949C119.389 121.949 119.763 122.103 120.071 122.411C120.379 122.719 120.533 123.1 120.533 123.555C120.533 124.009 120.379 124.391 120.071 124.699C119.763 125.007 119.389 125.161 118.949 125.161ZM120.181 126.767V138.889H117.673V126.767H120.181ZM127.874 139.087C126.921 139.087 126.063 138.918 125.3 138.581C124.552 138.229 123.958 137.759 123.518 137.173C123.078 136.571 122.844 135.904 122.814 135.171H125.41C125.454 135.684 125.696 136.117 126.136 136.469C126.591 136.806 127.156 136.975 127.83 136.975C128.534 136.975 129.077 136.843 129.458 136.579C129.854 136.3 130.052 135.948 130.052 135.523C130.052 135.068 129.832 134.731 129.392 134.511C128.967 134.291 128.285 134.049 127.346 133.785C126.437 133.535 125.696 133.293 125.124 133.059C124.552 132.824 124.054 132.465 123.628 131.981C123.218 131.497 123.012 130.859 123.012 130.067C123.012 129.421 123.203 128.835 123.584 128.307C123.966 127.764 124.508 127.339 125.212 127.031C125.931 126.723 126.752 126.569 127.676 126.569C129.055 126.569 130.162 126.921 130.998 127.625C131.849 128.314 132.304 129.26 132.362 130.463H129.854C129.81 129.92 129.59 129.487 129.194 129.165C128.798 128.842 128.263 128.681 127.588 128.681C126.928 128.681 126.422 128.805 126.07 129.055C125.718 129.304 125.542 129.634 125.542 130.045C125.542 130.367 125.66 130.639 125.894 130.859C126.129 131.079 126.415 131.255 126.752 131.387C127.09 131.504 127.588 131.658 128.248 131.849C129.128 132.083 129.847 132.325 130.404 132.575C130.976 132.809 131.468 133.161 131.878 133.631C132.289 134.1 132.502 134.723 132.516 135.501C132.516 136.19 132.326 136.806 131.944 137.349C131.563 137.891 131.02 138.317 130.316 138.625C129.627 138.933 128.813 139.087 127.874 139.087ZM138.152 128.813V135.523C138.152 135.977 138.255 136.307 138.46 136.513C138.68 136.703 139.047 136.799 139.56 136.799H141.1V138.889H139.12C137.991 138.889 137.126 138.625 136.524 138.097C135.923 137.569 135.622 136.711 135.622 135.523V128.813H134.192V126.767H135.622V123.753H138.152V126.767H141.1V128.813H138.152ZM150.403 125.161C149.948 125.161 149.567 125.007 149.259 124.699C148.951 124.391 148.797 124.009 148.797 123.555C148.797 123.1 148.951 122.719 149.259 122.411C149.567 122.103 149.948 121.949 150.403 121.949C150.843 121.949 151.217 122.103 151.525 122.411C151.833 122.719 151.987 123.1 151.987 123.555C151.987 124.009 151.833 124.391 151.525 124.699C151.217 125.007 150.843 125.161 150.403 125.161ZM151.635 126.767V138.889H149.127V126.767H151.635ZM159.327 139.087C158.374 139.087 157.516 138.918 156.753 138.581C156.005 138.229 155.411 137.759 154.971 137.173C154.531 136.571 154.297 135.904 154.267 135.171H156.863C156.907 135.684 157.149 136.117 157.589 136.469C158.044 136.806 158.609 136.975 159.283 136.975C159.987 136.975 160.53 136.843 160.911 136.579C161.307 136.3 161.505 135.948 161.505 135.523C161.505 135.068 161.285 134.731 160.845 134.511C160.42 134.291 159.738 134.049 158.799 133.785C157.89 133.535 157.149 133.293 156.577 133.059C156.005 132.824 155.507 132.465 155.081 131.981C154.671 131.497 154.465 130.859 154.465 130.067C154.465 129.421 154.656 128.835 155.037 128.307C155.419 127.764 155.961 127.339 156.665 127.031C157.384 126.723 158.205 126.569 159.129 126.569C160.508 126.569 161.615 126.921 162.451 127.625C163.302 128.314 163.757 129.26 163.815 130.463H161.307C161.263 129.92 161.043 129.487 160.647 129.165C160.251 128.842 159.716 128.681 159.041 128.681C158.381 128.681 157.875 128.805 157.523 129.055C157.171 129.304 156.995 129.634 156.995 130.045C156.995 130.367 157.113 130.639 157.347 130.859C157.582 131.079 157.868 131.255 158.205 131.387C158.543 131.504 159.041 131.658 159.701 131.849C160.581 132.083 161.3 132.325 161.857 132.575C162.429 132.809 162.921 133.161 163.331 133.631C163.742 134.1 163.955 134.723 163.969 135.501C163.969 136.19 163.779 136.806 163.397 137.349C163.016 137.891 162.473 138.317 161.769 138.625C161.08 138.933 160.266 139.087 159.327 139.087ZM174.902 125.623V130.111H180.182V132.157H174.902V136.843H180.842V138.889H172.394V123.577H180.842V125.623H174.902Z" fill="black"/>
<path d="M198.605 126.569C199.559 126.569 200.409 126.767 201.157 127.163C201.92 127.559 202.514 128.145 202.939 128.923C203.379 129.7 203.599 130.639 203.599 131.739V138.889H201.113V132.113C201.113 131.027 200.842 130.199 200.299 129.627C199.757 129.04 199.016 128.747 198.077 128.747C197.139 128.747 196.391 129.04 195.833 129.627C195.291 130.199 195.019 131.027 195.019 132.113V138.889H192.533V132.113C192.533 131.027 192.262 130.199 191.719 129.627C191.177 129.04 190.436 128.747 189.497 128.747C188.559 128.747 187.811 129.04 187.253 129.627C186.711 130.199 186.439 131.027 186.439 132.113V138.889H183.931V126.767H186.439V128.153C186.85 127.654 187.371 127.265 188.001 126.987C188.632 126.708 189.307 126.569 190.025 126.569C190.993 126.569 191.859 126.774 192.621 127.185C193.384 127.595 193.971 128.189 194.381 128.967C194.748 128.233 195.32 127.654 196.097 127.229C196.875 126.789 197.711 126.569 198.605 126.569ZM209.299 128.549C209.724 127.991 210.303 127.522 211.037 127.141C211.77 126.759 212.599 126.569 213.523 126.569C214.579 126.569 215.539 126.833 216.405 127.361C217.285 127.874 217.974 128.6 218.473 129.539C218.971 130.477 219.221 131.555 219.221 132.773C219.221 133.99 218.971 135.083 218.473 136.051C217.974 137.004 217.285 137.752 216.405 138.295C215.539 138.823 214.579 139.087 213.523 139.087C212.599 139.087 211.777 138.903 211.059 138.537C210.34 138.155 209.753 137.686 209.299 137.129V144.653H206.791V126.767H209.299V128.549ZM216.669 132.773C216.669 131.937 216.493 131.218 216.141 130.617C215.803 130.001 215.349 129.539 214.777 129.231C214.219 128.908 213.618 128.747 212.973 128.747C212.342 128.747 211.741 128.908 211.169 129.231C210.611 129.553 210.157 130.023 209.805 130.639C209.467 131.255 209.299 131.981 209.299 132.817C209.299 133.653 209.467 134.386 209.805 135.017C210.157 135.633 210.611 136.102 211.169 136.425C211.741 136.747 212.342 136.909 212.973 136.909C213.618 136.909 214.219 136.747 214.777 136.425C215.349 136.087 215.803 135.603 216.141 134.973C216.493 134.342 216.669 133.609 216.669 132.773ZM224.627 128.813V135.523C224.627 135.977 224.729 136.307 224.935 136.513C225.155 136.703 225.521 136.799 226.035 136.799H227.575V138.889H225.595C224.465 138.889 223.6 138.625 222.999 138.097C222.397 137.569 222.097 136.711 222.097 135.523V128.813H220.667V126.767H222.097V123.753H224.627V126.767H227.575V128.813H224.627ZM240.798 126.767L233.362 144.587H230.766L233.23 138.691L228.456 126.767H231.25L234.66 136.007L238.202 126.767H240.798Z" fill="#2C3066"/>
<circle cx="128.091" cy="41.2884" r="37.4124" fill="#DEFFE4"/>
<path d="M132.218 8.34946C126.834 2.9653 119.675 0 112.061 0C105.048 0 98.421 2.5156 93.2115 7.11949C88.0019 2.5156 81.3752 0 74.3623 0C66.7478 0 59.5893 2.9653 54.2049 8.34946C48.8206 13.7336 45.8555 20.8923 45.8555 28.5068C45.8555 36.1213 48.8206 43.2799 54.2049 48.6642L84.197 78.6561C86.6826 81.1415 89.9463 82.3841 93.2111 82.3839C96.4751 82.3837 99.7401 81.141 102.225 78.6563L114.174 66.7077C114.896 65.9854 114.896 64.8141 114.174 64.0917C113.452 63.3693 112.281 63.3693 111.558 64.0917L99.6088 76.0402C96.0811 79.5681 90.3407 79.5679 86.813 76.0402L56.821 46.048C52.1355 41.3625 49.5552 35.133 49.5552 28.5068C49.5552 21.8807 52.1355 15.651 56.821 10.9657C61.5063 6.28022 67.736 3.69987 74.3621 3.69987C80.9883 3.69987 87.2178 6.28022 91.9033 10.9657C92.2503 11.3125 92.7207 11.5075 93.2113 11.5075C93.7019 11.5075 94.1723 11.3125 94.5193 10.9657C99.2046 6.28022 105.434 3.69987 112.06 3.69987C118.687 3.69987 124.916 6.28022 129.602 10.9657C134.287 15.651 136.868 21.8805 136.868 28.5068C136.868 35.1331 134.287 41.3627 129.602 46.048L123.33 52.3195C122.608 53.0418 122.608 54.2132 123.33 54.9355C124.053 55.6581 125.224 55.6581 125.946 54.9355L132.218 48.664C137.602 43.2799 140.567 36.1211 140.567 28.5068C140.567 20.8925 137.602 13.7336 132.218 8.34946H132.218Z" fill="#40AA54"/>
<path d="M115.93 12.6396C111.25 12.6396 107.442 16.4474 107.442 21.128C107.442 25.8087 111.25 29.6164 115.93 29.6164C120.611 29.6164 124.419 25.8087 124.419 21.128C124.419 16.4474 120.611 12.6396 115.93 12.6396ZM115.93 25.9165C113.29 25.9165 111.142 23.7683 111.142 21.1278C111.142 18.4874 113.29 16.3391 115.93 16.3391C118.571 16.3391 120.719 18.4874 120.719 21.1278C120.719 23.7683 118.571 25.9165 115.93 25.9165Z" fill="#40AA54"/>
<circle cx="118.752" cy="59.5139" r="1.84984" fill="#40AA54"/>
</svg>
