<svg width="7" height="12" viewBox="0 0 7 12" fill="none" xmlns="http://www.w3.org/2000/svg">
<path d="M0.322284 4.89996C0.380269 4.84218 0.443172 4.79341 0.509353 4.751L4.93672 0.323836C5.36864 -0.107877 6.06938 -0.108082 6.5015 0.324041C6.93362 0.755959 6.93362 1.45649 6.5015 1.88882L2.68861 5.70171L6.52117 9.53447C6.95329 9.96639 6.95329 10.6667 6.52117 11.0993C6.30501 11.3156 6.02164 11.4234 5.73888 11.4234C5.45613 11.4234 5.17255 11.3156 4.95659 11.0993L0.509353 6.6516C0.443172 6.60919 0.379859 6.56042 0.322284 6.50264C0.101407 6.28177 -0.005137 5.99082 0.000190225 5.7013C-0.005137 5.41178 0.101407 5.12104 0.322284 4.89996Z" fill="black"/>
</svg>
