<svg width="13" height="13" viewBox="0 0 13 13" fill="none" xmlns="http://www.w3.org/2000/svg">
<path d="M0.433333 2.60007H1.3V11.4747C1.30238 12.3162 1.9839 12.9977 2.82533 13.0001H9.32534C10.16 12.9882 10.8311 12.3095 10.8333 11.4747V2.60007H11.7C11.9393 2.60007 12.1333 2.40606 12.1333 2.16673C12.1333 1.92741 11.9393 1.7334 11.7 1.7334H0.433333C0.19401 1.7334 0 1.92741 0 2.16673C0 2.40606 0.19401 2.60007 0.433333 2.60007ZM9.96667 2.60007V11.4747C9.96667 11.8385 9.67177 12.1334 9.308 12.1334H2.808C2.45101 12.124 2.16654 11.8318 2.16667 11.4747V2.60007H9.96667Z" fill="#40AA54"/>
<path d="M4.33324 0.866667H7.7999C8.03923 0.866667 8.23324 0.672657 8.23324 0.433334C8.23324 0.19401 8.03923 0 7.7999 0H4.33324C4.09391 0 3.8999 0.19401 3.8999 0.433334C3.8999 0.672657 4.09391 0.866667 4.33324 0.866667Z" fill="#40AA54"/>
<path d="M4.62816 10.3997C4.86748 10.3997 5.06149 10.2057 5.06149 9.96634V4.76634C5.06149 4.52702 4.86748 4.33301 4.62816 4.33301C4.38883 4.33301 4.19482 4.52702 4.19482 4.76634V9.96634C4.19482 10.2057 4.38883 10.3997 4.62816 10.3997Z" fill="#40AA54"/>
<path d="M7.50511 10.3997C7.74443 10.3997 7.93844 10.2057 7.93844 9.96634V4.76634C7.93844 4.52702 7.74443 4.33301 7.50511 4.33301C7.26579 4.33301 7.07178 4.52702 7.07178 4.76634V9.96634C7.07178 10.2057 7.26579 10.3997 7.50511 10.3997Z" fill="#40AA54"/>
</svg>
