<svg width="30" height="39" viewBox="0 0 30 39" fill="none" xmlns="http://www.w3.org/2000/svg">
<path d="M13.422 18.261H9.422C8.79908 18.2589 8.20215 18.0112 7.76083 17.5715C7.31952 17.1319 7.06947 16.5359 7.065 15.913V7.95703C7.06681 7.74228 7.11564 7.53054 7.20807 7.3367C7.3005 7.14285 7.43428 6.97162 7.6 6.83503L8.3 6.31303C8.42224 6.18011 8.49478 6.00901 8.50533 5.82873C8.51588 5.64845 8.46379 5.47007 8.35788 5.3238C8.25197 5.17753 8.09876 5.07236 7.92419 5.02611C7.74962 4.97986 7.56444 4.99538 7.4 5.07003L6.674 5.60903C6.31456 5.88712 6.02237 6.24261 5.81912 6.64909C5.61588 7.05558 5.50681 7.50262 5.5 7.95703V15.922C5.50211 16.9616 5.916 17.9579 6.65106 18.693C7.38612 19.428 8.38247 19.8419 9.422 19.844H13.422C13.5271 19.8478 13.6319 19.8303 13.7301 19.7927C13.8283 19.7551 13.918 19.698 13.9937 19.625C14.0694 19.552 14.1296 19.4644 14.1707 19.3676C14.2118 19.2708 14.233 19.1667 14.233 19.0615C14.233 18.9563 14.2118 18.8522 14.1707 18.7554C14.1296 18.6586 14.0694 18.5711 13.9937 18.4981C13.918 18.425 13.8283 18.368 13.7301 18.3304C13.6319 18.2927 13.5271 18.2753 13.422 18.279V18.261Z" fill="#40AA54"/>
<path d="M24.2911 7.93894C24.2866 7.4877 24.1822 7.04307 23.9852 6.63706C23.7883 6.23105 23.5037 5.87376 23.1521 5.59094L17.1431 0.803936C16.5022 0.288995 15.7047 0.00830078 14.8826 0.00830078C14.0605 0.00830078 13.263 0.288995 12.6221 0.803936L10.7171 2.18294C10.5551 2.31015 10.4484 2.49495 10.4192 2.69887C10.39 2.90278 10.4406 3.11009 10.5605 3.27762C10.6803 3.44516 10.8602 3.56001 11.0626 3.59825C11.265 3.6365 11.4744 3.59519 11.6471 3.48294L13.5771 2.03994C13.9445 1.73736 14.4056 1.57191 14.8816 1.57191C15.3575 1.57191 15.8187 1.73736 16.1861 2.03994L22.1951 6.83094C22.3659 6.96624 22.5045 7.13781 22.6008 7.33324C22.6971 7.52867 22.7488 7.74308 22.7521 7.96094V15.9259C22.7521 16.5487 22.5047 17.1459 22.0644 17.5862C21.624 18.0266 21.0268 18.2739 20.4041 18.2739H18.6221C18.5346 18.2739 18.4506 18.2392 18.3887 18.1773C18.3269 18.1154 18.2921 18.0315 18.2921 17.9439V14.3479C18.2921 13.7982 18.0743 13.2709 17.6863 12.8814C17.2983 12.4919 16.7718 12.2721 16.2221 12.2699H13.6131C13.062 12.2699 12.5334 12.4889 12.1437 12.8786C11.754 13.2683 11.5351 13.7968 11.5351 14.3479V15.7219C11.5313 15.827 11.5488 15.9318 11.5864 16.0301C11.6241 16.1283 11.6811 16.2179 11.7541 16.2936C11.8272 16.3693 11.9147 16.4295 12.0115 16.4706C12.1083 16.5117 12.2124 16.5329 12.3176 16.5329C12.4228 16.5329 12.5269 16.5117 12.6237 16.4706C12.7205 16.4295 12.808 16.3693 12.8811 16.2936C12.9541 16.2179 13.0111 16.1283 13.0488 16.0301C13.0864 15.9318 13.1039 15.827 13.1001 15.7219V14.3479C13.0984 14.2812 13.11 14.2148 13.1344 14.1526C13.1587 14.0904 13.1953 14.0338 13.2419 13.9859C13.2885 13.9381 13.3442 13.9001 13.4057 13.8742C13.4672 13.8483 13.5333 13.8349 13.6001 13.8349H16.2131C16.3457 13.8349 16.4729 13.8876 16.5666 13.9814C16.6604 14.0752 16.7131 14.2023 16.7131 14.3349V17.9349C16.7131 18.4388 16.9133 18.9221 17.2696 19.2784C17.6259 19.6348 18.1092 19.8349 18.6131 19.8349H20.3611C20.8763 19.8352 21.3865 19.7339 21.8626 19.537C22.3387 19.34 22.7713 19.0511 23.1357 18.6869C23.5001 18.3227 23.7891 17.8903 23.9864 17.4143C24.1836 16.9383 24.2851 16.4281 24.2851 15.9129L24.2911 7.93894Z" fill="#40AA54"/>
<path d="M6.3 28.05V35H5.16V31.96H1.89V35H0.75V28.05H1.89V31.03H5.16V28.05H6.3ZM10.1908 35.09C9.67078 35.09 9.20078 34.9733 8.78078 34.74C8.36078 34.5 8.03078 34.1667 7.79078 33.74C7.55078 33.3067 7.43078 32.8067 7.43078 32.24C7.43078 31.68 7.55411 31.1833 7.80078 30.75C8.04745 30.3167 8.38411 29.9833 8.81078 29.75C9.23745 29.5167 9.71411 29.4 10.2408 29.4C10.7674 29.4 11.2441 29.5167 11.6708 29.75C12.0974 29.9833 12.4341 30.3167 12.6808 30.75C12.9274 31.1833 13.0508 31.68 13.0508 32.24C13.0508 32.8 12.9241 33.2967 12.6708 33.73C12.4174 34.1633 12.0708 34.5 11.6308 34.74C11.1974 34.9733 10.7174 35.09 10.1908 35.09ZM10.1908 34.1C10.4841 34.1 10.7574 34.03 11.0108 33.89C11.2708 33.75 11.4808 33.54 11.6408 33.26C11.8008 32.98 11.8808 32.64 11.8808 32.24C11.8808 31.84 11.8041 31.5033 11.6508 31.23C11.4974 30.95 11.2941 30.74 11.0408 30.6C10.7874 30.46 10.5141 30.39 10.2208 30.39C9.92745 30.39 9.65411 30.46 9.40078 30.6C9.15411 30.74 8.95745 30.95 8.81078 31.23C8.66411 31.5033 8.59078 31.84 8.59078 32.24C8.59078 32.8333 8.74078 33.2933 9.04078 33.62C9.34745 33.94 9.73078 34.1 10.1908 34.1ZM20.8477 29.4C21.2811 29.4 21.6677 29.49 22.0077 29.67C22.3544 29.85 22.6244 30.1167 22.8177 30.47C23.0177 30.8233 23.1177 31.25 23.1177 31.75V35H21.9877V31.92C21.9877 31.4267 21.8644 31.05 21.6177 30.79C21.3711 30.5233 21.0344 30.39 20.6077 30.39C20.1811 30.39 19.8411 30.5233 19.5877 30.79C19.3411 31.05 19.2177 31.4267 19.2177 31.92V35H18.0877V31.92C18.0877 31.4267 17.9644 31.05 17.7177 30.79C17.4711 30.5233 17.1344 30.39 16.7077 30.39C16.2811 30.39 15.9411 30.5233 15.6877 30.79C15.4411 31.05 15.3177 31.4267 15.3177 31.92V35H14.1777V29.49H15.3177V30.12C15.5044 29.8933 15.7411 29.7167 16.0277 29.59C16.3144 29.4633 16.6211 29.4 16.9477 29.4C17.3877 29.4 17.7811 29.4933 18.1277 29.68C18.4744 29.8667 18.7411 30.1367 18.9277 30.49C19.0944 30.1567 19.3544 29.8933 19.7077 29.7C20.0611 29.5 20.4411 29.4 20.8477 29.4ZM29.6184 32.11C29.6184 32.3167 29.605 32.5033 29.5784 32.67H25.3684C25.4017 33.11 25.565 33.4633 25.8584 33.73C26.1517 33.9967 26.5117 34.13 26.9384 34.13C27.5517 34.13 27.985 33.8733 28.2384 33.36H29.4684C29.3017 33.8667 28.9984 34.2833 28.5584 34.61C28.125 34.93 27.585 35.09 26.9384 35.09C26.4117 35.09 25.9384 34.9733 25.5184 34.74C25.105 34.5 24.7784 34.1667 24.5384 33.74C24.305 33.3067 24.1884 32.8067 24.1884 32.24C24.1884 31.6733 24.3017 31.1767 24.5284 30.75C24.7617 30.3167 25.085 29.9833 25.4984 29.75C25.9184 29.5167 26.3984 29.4 26.9384 29.4C27.4584 29.4 27.9217 29.5133 28.3284 29.74C28.735 29.9667 29.0517 30.2867 29.2784 30.7C29.505 31.1067 29.6184 31.5767 29.6184 32.11ZM28.4284 31.75C28.4217 31.33 28.2717 30.9933 27.9784 30.74C27.685 30.4867 27.3217 30.36 26.8884 30.36C26.495 30.36 26.1584 30.4867 25.8784 30.74C25.5984 30.9867 25.4317 31.3233 25.3784 31.75H28.4284Z" fill="#2C3066"/>
</svg>
