<svg width="35" height="39" viewBox="0 0 35 39" fill="none" xmlns="http://www.w3.org/2000/svg">
<path d="M4.01497 35.07C3.3683 35.07 2.77164 34.92 2.22497 34.62C1.68497 34.3133 1.25497 33.89 0.934971 33.35C0.621637 32.8033 0.464971 32.19 0.464971 31.51C0.464971 30.83 0.621637 30.22 0.934971 29.68C1.25497 29.14 1.68497 28.72 2.22497 28.42C2.77164 28.1133 3.3683 27.96 4.01497 27.96C4.6683 27.96 5.26497 28.1133 5.80497 28.42C6.35164 28.72 6.78164 29.14 7.09497 29.68C7.4083 30.22 7.56497 30.83 7.56497 31.51C7.56497 32.19 7.4083 32.8033 7.09497 33.35C6.78164 33.89 6.35164 34.3133 5.80497 34.62C5.26497 34.92 4.6683 35.07 4.01497 35.07ZM4.01497 34.08C4.47497 34.08 4.88497 33.9767 5.24497 33.77C5.60497 33.5567 5.88497 33.2567 6.08497 32.87C6.29164 32.4767 6.39497 32.0233 6.39497 31.51C6.39497 30.9967 6.29164 30.5467 6.08497 30.16C5.88497 29.7733 5.60497 29.4767 5.24497 29.27C4.88497 29.0633 4.47497 28.96 4.01497 28.96C3.55497 28.96 3.14497 29.0633 2.78497 29.27C2.42497 29.4767 2.14164 29.7733 1.93497 30.16C1.73497 30.5467 1.63497 30.9967 1.63497 31.51C1.63497 32.0233 1.73497 32.4767 1.93497 32.87C2.14164 33.2567 2.42497 33.5567 2.78497 33.77C3.14497 33.9767 3.55497 34.08 4.01497 34.08ZM9.82677 30.29C9.99343 30.01 10.2134 29.7933 10.4868 29.64C10.7668 29.48 11.0968 29.4 11.4768 29.4V30.58H11.1868C10.7401 30.58 10.4001 30.6933 10.1668 30.92C9.9401 31.1467 9.82677 31.54 9.82677 32.1V35H8.68677V29.49H9.82677V30.29ZM12.1447 32.22C12.1447 31.6667 12.258 31.1767 12.4847 30.75C12.718 30.3233 13.0313 29.9933 13.4247 29.76C13.8247 29.52 14.268 29.4 14.7547 29.4C15.1147 29.4 15.468 29.48 15.8147 29.64C16.168 29.7933 16.448 30 16.6547 30.26V27.6H17.8047V35H16.6547V34.17C16.468 34.4367 16.208 34.6567 15.8747 34.83C15.548 35.0033 15.1713 35.09 14.7447 35.09C14.2647 35.09 13.8247 34.97 13.4247 34.73C13.0313 34.4833 12.718 34.1433 12.4847 33.71C12.258 33.27 12.1447 32.7733 12.1447 32.22ZM16.6547 32.24C16.6547 31.86 16.5747 31.53 16.4147 31.25C16.2613 30.97 16.058 30.7567 15.8047 30.61C15.5513 30.4633 15.278 30.39 14.9847 30.39C14.6913 30.39 14.418 30.4633 14.1647 30.61C13.9113 30.75 13.7047 30.96 13.5447 31.24C13.3913 31.5133 13.3147 31.84 13.3147 32.22C13.3147 32.6 13.3913 32.9333 13.5447 33.22C13.7047 33.5067 13.9113 33.7267 14.1647 33.88C14.4247 34.0267 14.698 34.1 14.9847 34.1C15.278 34.1 15.5513 34.0267 15.8047 33.88C16.058 33.7333 16.2613 33.52 16.4147 33.24C16.5747 32.9533 16.6547 32.62 16.6547 32.24ZM24.352 32.11C24.352 32.3167 24.3387 32.5033 24.312 32.67H20.102C20.1353 33.11 20.2987 33.4633 20.592 33.73C20.8853 33.9967 21.2453 34.13 21.672 34.13C22.2853 34.13 22.7187 33.8733 22.972 33.36H24.202C24.0353 33.8667 23.732 34.2833 23.292 34.61C22.8587 34.93 22.3187 35.09 21.672 35.09C21.1453 35.09 20.672 34.9733 20.252 34.74C19.8387 34.5 19.512 34.1667 19.272 33.74C19.0387 33.3067 18.922 32.8067 18.922 32.24C18.922 31.6733 19.0353 31.1767 19.262 30.75C19.4953 30.3167 19.8187 29.9833 20.232 29.75C20.652 29.5167 21.132 29.4 21.672 29.4C22.192 29.4 22.6553 29.5133 23.062 29.74C23.4687 29.9667 23.7853 30.2867 24.012 30.7C24.2387 31.1067 24.352 31.5767 24.352 32.11ZM23.162 31.75C23.1553 31.33 23.0053 30.9933 22.712 30.74C22.4187 30.4867 22.0553 30.36 21.622 30.36C21.2287 30.36 20.892 30.4867 20.612 30.74C20.332 30.9867 20.1653 31.3233 20.112 31.75H23.162ZM26.6139 30.29C26.7805 30.01 27.0005 29.7933 27.2739 29.64C27.5539 29.48 27.8839 29.4 28.2639 29.4V30.58H27.9739C27.5272 30.58 27.1872 30.6933 26.9539 30.92C26.7272 31.1467 26.6139 31.54 26.6139 32.1V35H25.4739V29.49H26.6139V30.29ZM31.3118 35.09C30.8784 35.09 30.4884 35.0133 30.1418 34.86C29.8018 34.7 29.5318 34.4867 29.3318 34.22C29.1318 33.9467 29.0251 33.6433 29.0118 33.31H30.1918C30.2118 33.5433 30.3218 33.74 30.5218 33.9C30.7284 34.0533 30.9851 34.13 31.2918 34.13C31.6118 34.13 31.8584 34.07 32.0318 33.95C32.2118 33.8233 32.3018 33.6633 32.3018 33.47C32.3018 33.2633 32.2018 33.11 32.0018 33.01C31.8084 32.91 31.4984 32.8 31.0718 32.68C30.6584 32.5667 30.3218 32.4567 30.0618 32.35C29.8018 32.2433 29.5751 32.08 29.3818 31.86C29.1951 31.64 29.1018 31.35 29.1018 30.99C29.1018 30.6967 29.1884 30.43 29.3618 30.19C29.5351 29.9433 29.7818 29.75 30.1018 29.61C30.4284 29.47 30.8018 29.4 31.2218 29.4C31.8484 29.4 32.3518 29.56 32.7318 29.88C33.1184 30.1933 33.3251 30.6233 33.3518 31.17H32.2118C32.1918 30.9233 32.0918 30.7267 31.9118 30.58C31.7318 30.4333 31.4884 30.36 31.1818 30.36C30.8818 30.36 30.6518 30.4167 30.4918 30.53C30.3318 30.6433 30.2518 30.7933 30.2518 30.98C30.2518 31.1267 30.3051 31.25 30.4118 31.35C30.5184 31.45 30.6484 31.53 30.8018 31.59C30.9551 31.6433 31.1818 31.7133 31.4818 31.8C31.8818 31.9067 32.2084 32.0167 32.4618 32.13C32.7218 32.2367 32.9451 32.3967 33.1318 32.61C33.3184 32.8233 33.4151 33.1067 33.4218 33.46C33.4218 33.7733 33.3351 34.0533 33.1618 34.3C32.9884 34.5467 32.7418 34.74 32.4218 34.88C32.1084 35.02 31.7384 35.09 31.3118 35.09Z" fill="#777777"/>
<path d="M18.006 20C17.8282 19.9781 17.6646 19.892 17.5459 19.7578C17.4272 19.6236 17.3617 19.4506 17.3617 19.2715C17.3617 19.0924 17.4272 18.9194 17.5459 18.7852C17.6646 18.651 17.8282 18.5649 18.006 18.543H20.854C23.309 18.543 24.546 17.28 24.546 14.791V5.21C24.546 2.72 23.309 1.457 20.854 1.457H13.138C10.682 1.457 9.438 2.72 9.438 5.21V14.791C9.438 17.28 10.683 18.543 13.138 18.543C13.3158 18.5649 13.4794 18.651 13.5981 18.7852C13.7168 18.9194 13.7823 19.0924 13.7823 19.2715C13.7823 19.4506 13.7168 19.6236 13.5981 19.7578C13.4794 19.892 13.3158 19.9781 13.138 20C9.924 20 8 18.049 8 14.791V5.21C8 1.942 9.924 0 13.138 0H20.854C24.067 0 25.991 1.951 26 5.21V14.791C26 18.049 24.084 20 20.862 20H18.006ZM13.39 14.958H13.382C13.19 14.958 13.0058 14.8817 12.8701 14.7459C12.7343 14.6102 12.658 14.426 12.658 14.234C12.658 14.042 12.7343 13.8578 12.8701 13.7221C13.0058 13.5863 13.19 13.51 13.382 13.51H20.592C20.784 13.51 20.9682 13.5863 21.1039 13.7221C21.2397 13.8578 21.316 14.042 21.316 14.234C21.316 14.426 21.2397 14.6102 21.1039 14.7459C20.9682 14.8817 20.784 14.958 20.592 14.958H13.39ZM20.59 10.729H13.382C13.2042 10.7071 13.0406 10.621 12.9219 10.4868C12.8032 10.3526 12.7377 10.1796 12.7377 10.0005C12.7377 9.82136 12.8032 9.64841 12.9219 9.51423C13.0406 9.38004 13.2042 9.29389 13.382 9.272H20.592C20.7275 9.25704 20.8645 9.28087 20.987 9.3407C21.1095 9.40054 21.2125 9.49392 21.284 9.61C21.3559 9.7272 21.3939 9.86201 21.3939 9.9995C21.3939 10.137 21.3559 10.2718 21.284 10.389C21.2195 10.4937 21.1293 10.5802 21.022 10.6404C20.9148 10.7006 20.794 10.7324 20.671 10.733C20.6446 10.7331 20.6182 10.7318 20.592 10.729H20.59ZM13.39 6.5C13.2122 6.47811 13.0486 6.39196 12.9299 6.25777C12.8112 6.12359 12.7457 5.95064 12.7457 5.7715C12.7457 5.59236 12.8112 5.41941 12.9299 5.28523C13.0486 5.15104 13.2122 5.06489 13.39 5.043H16.133C16.3108 5.06489 16.4744 5.15104 16.5931 5.28523C16.7118 5.41941 16.7773 5.59236 16.7773 5.7715C16.7773 5.95064 16.7118 6.12359 16.5931 6.25777C16.4744 6.39196 16.3108 6.47811 16.133 6.5H13.39Z" fill="#777777"/>
</svg>
