<svg width="40" height="39" viewBox="0 0 40 39" fill="none" xmlns="http://www.w3.org/2000/svg">
<path d="M10.4001 28.05L8.3401 35H7.0501L5.5901 29.74L4.0401 35L2.7601 35.01L0.790098 28.05H2.0001L3.4401 33.71L5.0001 28.05H6.2801L7.7301 33.68L9.1801 28.05H10.4001ZM11.9203 28.76C11.7137 28.76 11.5403 28.69 11.4003 28.55C11.2603 28.41 11.1903 28.2367 11.1903 28.03C11.1903 27.8233 11.2603 27.65 11.4003 27.51C11.5403 27.37 11.7137 27.3 11.9203 27.3C12.1203 27.3 12.2903 27.37 12.4303 27.51C12.5703 27.65 12.6403 27.8233 12.6403 28.03C12.6403 28.2367 12.5703 28.41 12.4303 28.55C12.2903 28.69 12.1203 28.76 11.9203 28.76ZM12.4803 29.49V35H11.3403V29.49H12.4803ZM15.9771 35.09C15.5437 35.09 15.1537 35.0133 14.8071 34.86C14.4671 34.7 14.1971 34.4867 13.9971 34.22C13.7971 33.9467 13.6904 33.6433 13.6771 33.31H14.8571C14.8771 33.5433 14.9871 33.74 15.1871 33.9C15.3937 34.0533 15.6504 34.13 15.9571 34.13C16.2771 34.13 16.5237 34.07 16.6971 33.95C16.8771 33.8233 16.9671 33.6633 16.9671 33.47C16.9671 33.2633 16.8671 33.11 16.6671 33.01C16.4737 32.91 16.1637 32.8 15.7371 32.68C15.3237 32.5667 14.9871 32.4567 14.7271 32.35C14.4671 32.2433 14.2404 32.08 14.0471 31.86C13.8604 31.64 13.7671 31.35 13.7671 30.99C13.7671 30.6967 13.8537 30.43 14.0271 30.19C14.2004 29.9433 14.4471 29.75 14.7671 29.61C15.0937 29.47 15.4671 29.4 15.8871 29.4C16.5137 29.4 17.0171 29.56 17.3971 29.88C17.7837 30.1933 17.9904 30.6233 18.0171 31.17H16.8771C16.8571 30.9233 16.7571 30.7267 16.5771 30.58C16.3971 30.4333 16.1537 30.36 15.8471 30.36C15.5471 30.36 15.3171 30.4167 15.1571 30.53C14.9971 30.6433 14.9171 30.7933 14.9171 30.98C14.9171 31.1267 14.9704 31.25 15.0771 31.35C15.1837 31.45 15.3137 31.53 15.4671 31.59C15.6204 31.6433 15.8471 31.7133 16.1471 31.8C16.5471 31.9067 16.8737 32.0167 17.1271 32.13C17.3871 32.2367 17.6104 32.3967 17.7971 32.61C17.9837 32.8233 18.0804 33.1067 18.0871 33.46C18.0871 33.7733 18.0004 34.0533 17.8271 34.3C17.6537 34.5467 17.4071 34.74 17.0871 34.88C16.7737 35.02 16.4037 35.09 15.9771 35.09ZM22.1688 29.4C22.5888 29.4 22.9622 29.49 23.2888 29.67C23.6222 29.85 23.8822 30.1167 24.0688 30.47C24.2622 30.8233 24.3588 31.25 24.3588 31.75V35H23.2288V31.92C23.2288 31.4267 23.1055 31.05 22.8588 30.79C22.6122 30.5233 22.2755 30.39 21.8488 30.39C21.4222 30.39 21.0822 30.5233 20.8288 30.79C20.5822 31.05 20.4588 31.4267 20.4588 31.92V35H19.3188V27.6H20.4588V30.13C20.6522 29.8967 20.8955 29.7167 21.1888 29.59C21.4888 29.4633 21.8155 29.4 22.1688 29.4ZM26.953 27.6V35H25.813V27.6H26.953ZM29.0297 28.76C28.823 28.76 28.6497 28.69 28.5097 28.55C28.3697 28.41 28.2997 28.2367 28.2997 28.03C28.2997 27.8233 28.3697 27.65 28.5097 27.51C28.6497 27.37 28.823 27.3 29.0297 27.3C29.2297 27.3 29.3997 27.37 29.5397 27.51C29.6797 27.65 29.7497 27.8233 29.7497 28.03C29.7497 28.2367 29.6797 28.41 29.5397 28.55C29.3997 28.69 29.2297 28.76 29.0297 28.76ZM29.5897 29.49V35H28.4497V29.49H29.5897ZM33.0864 35.09C32.6531 35.09 32.2631 35.0133 31.9164 34.86C31.5764 34.7 31.3064 34.4867 31.1064 34.22C30.9064 33.9467 30.7998 33.6433 30.7864 33.31H31.9664C31.9864 33.5433 32.0964 33.74 32.2964 33.9C32.5031 34.0533 32.7598 34.13 33.0664 34.13C33.3864 34.13 33.6331 34.07 33.8064 33.95C33.9864 33.8233 34.0764 33.6633 34.0764 33.47C34.0764 33.2633 33.9764 33.11 33.7764 33.01C33.5831 32.91 33.2731 32.8 32.8464 32.68C32.4331 32.5667 32.0964 32.4567 31.8364 32.35C31.5764 32.2433 31.3498 32.08 31.1564 31.86C30.9698 31.64 30.8764 31.35 30.8764 30.99C30.8764 30.6967 30.9631 30.43 31.1364 30.19C31.3098 29.9433 31.5564 29.75 31.8764 29.61C32.2031 29.47 32.5764 29.4 32.9964 29.4C33.6231 29.4 34.1264 29.56 34.5064 29.88C34.8931 30.1933 35.0998 30.6233 35.1264 31.17H33.9864C33.9664 30.9233 33.8664 30.7267 33.6864 30.58C33.5064 30.4333 33.2631 30.36 32.9564 30.36C32.6564 30.36 32.4264 30.4167 32.2664 30.53C32.1064 30.6433 32.0264 30.7933 32.0264 30.98C32.0264 31.1267 32.0798 31.25 32.1864 31.35C32.2931 31.45 32.4231 31.53 32.5764 31.59C32.7298 31.6433 32.9564 31.7133 33.2564 31.8C33.6564 31.9067 33.9831 32.0167 34.2364 32.13C34.4964 32.2367 34.7198 32.3967 34.9064 32.61C35.0931 32.8233 35.1898 33.1067 35.1964 33.46C35.1964 33.7733 35.1098 34.0533 34.9364 34.3C34.7631 34.5467 34.5164 34.74 34.1964 34.88C33.8831 35.02 33.5131 35.09 33.0864 35.09ZM37.7582 30.42V33.47C37.7582 33.6767 37.8049 33.8267 37.8982 33.92C37.9982 34.0067 38.1649 34.05 38.3982 34.05H39.0982V35H38.1982C37.6849 35 37.2916 34.88 37.0182 34.64C36.7449 34.4 36.6082 34.01 36.6082 33.47V30.42H35.9582V29.49H36.6082V28.12H37.7582V29.49H39.0982V30.42H37.7582Z" fill="#777777"/>
<path d="M19.8439 20.2645C17.5893 18.8748 15.4961 17.2388 13.6029 15.3865C12.2039 13.9914 11.1443 12.2933 10.5059 10.4235C9.82998 8.3912 9.96835 6.17595 10.8919 4.24353C11.2776 3.45589 11.8195 2.75495 12.4847 2.18334C13.1498 1.61173 13.9243 1.1814 14.7609 0.918525C15.7164 0.618061 16.7261 0.53111 17.7188 0.663818C18.7115 0.796526 19.663 1.14565 20.5059 1.68653C21.3487 1.14567 22.3 0.796553 23.2925 0.663844C24.2851 0.531135 25.2947 0.618077 26.2499 0.918525C27.0867 1.18127 27.8612 1.61143 28.5265 2.18286C29.1918 2.75429 29.7339 3.45504 30.1199 4.24253C31.0438 6.18656 31.1691 8.4152 30.4689 10.4505C29.829 12.3173 28.7738 14.0146 27.3829 15.4145C26.4745 16.3479 25.4941 17.2086 24.4509 17.9885L24.3959 18.0355C24.3137 18.091 24.2212 18.1296 24.124 18.1493C24.0267 18.1689 23.9265 18.1692 23.8292 18.1501C23.7318 18.1309 23.6392 18.0928 23.5566 18.0378C23.474 17.9828 23.4031 17.912 23.3479 17.8295C23.2885 17.746 23.2462 17.6517 23.2234 17.5518C23.2006 17.4519 23.1977 17.3485 23.2149 17.2475C23.2321 17.1474 23.2689 17.0516 23.3233 16.9658C23.3777 16.8799 23.4486 16.8057 23.5319 16.7475C24.5087 16.0082 25.4283 15.1962 26.2829 14.3185C27.5224 13.0966 28.4658 11.6073 29.0409 9.96453C29.5968 8.32137 29.4844 6.52553 28.7279 4.96453C28.4307 4.36169 28.0145 3.82526 27.5044 3.38754C26.9943 2.94981 26.4009 2.61985 25.7599 2.41753C24.9496 2.15986 24.0888 2.10277 23.2514 2.25118C22.4141 2.39958 21.6254 2.74904 20.9529 3.26953C20.8208 3.37001 20.6594 3.42442 20.4934 3.42442C20.3275 3.42442 20.166 3.37001 20.0339 3.26953C19.3618 2.74842 18.573 2.39858 17.7356 2.25016C16.8982 2.10173 16.0372 2.15917 15.2269 2.41753C14.5809 2.61502 13.9818 2.94187 13.4661 3.37818C12.9503 3.8145 12.5288 4.35116 12.2269 4.95553C11.4879 6.51558 11.3826 8.30138 11.9329 9.93752C12.5108 11.576 13.4539 13.0615 14.6909 14.2815C16.5091 16.0589 18.5187 17.6291 20.6829 18.9635C20.8177 19.0596 20.9191 19.1954 20.9728 19.3519C21.0266 19.5085 21.0302 19.6779 20.9829 19.8365C20.9374 19.9943 20.843 20.1336 20.7132 20.2342C20.5835 20.3349 20.4251 20.3917 20.2609 20.3965C20.1118 20.3959 19.9663 20.3498 19.8439 20.2645ZM25.4959 8.09153C25.4797 7.67244 25.3356 7.26836 25.083 6.93356C24.8304 6.59875 24.4814 6.34923 24.0829 6.21852C23.936 6.12348 23.8245 5.98253 23.7659 5.8176C23.7073 5.65267 23.7049 5.473 23.7589 5.30653C23.811 5.14044 23.9177 4.99683 24.0616 4.89899C24.2056 4.80115 24.3784 4.75482 24.5519 4.76753C25.2265 4.98947 25.8206 5.40532 26.2601 5.96308C26.6996 6.52085 26.9649 7.19579 27.0229 7.90353C27.0485 8.107 26.9932 8.31238 26.8689 8.47553C26.808 8.55539 26.7316 8.6222 26.6443 8.67202C26.5571 8.72183 26.4607 8.75363 26.3609 8.76552C26.3278 8.77004 26.2944 8.77238 26.2609 8.77252C26.0725 8.77106 25.8911 8.70118 25.7504 8.57591C25.6096 8.45063 25.5192 8.27849 25.4959 8.09153Z" fill="#777777"/>
</svg>
